<svg xmlns="http://www.w3.org/2000/svg" viewBox="0 0 512 512" width="512" height="512">
  <rect width="512" height="512" fill="#C7F0BA"/>
  <g transform="translate(71.68 71.68) scale(0.72)" fill="#1a4d1a">
    <path fill-rule="evenodd" d="m228.6,386.3v22.8h-52.6q-9,0 -18.1,-1.6 -9,-2 -17,-6.2 -7.7,-4.2 -13.6,-10.8 -5.9,-6.5 -9.8,-14.3 -3.4,-7.9 -4.8,-16.4 -1.4,-8.4 -1.4,-16.9v-139.8q0,-8.5 1.4,-17 1.4,-8.4 4.8,-16.3 3.9,-7.8 9.8,-14.3 5.9,-6.6 13.6,-10.8 8,-4.3 17,-5.9 9.1,-2 18.1,-2 9.1,0 18.1,2 9.1,1.6 16.7,5.9 8,4.2 13.9,10.8 5.9,6.5 9.4,14.3 3.9,7.9 5.2,16.3 1.4,8.5 1.4,17v107.8q0,5.5 -0.7,11.1 -0.7,5.2 -2.7,10.4 -2.1,5.2 -5.6,9.8 -3.1,4.6 -8,7.8 -4.5,3 -10.5,4.3 -5.9,1.3 -11.4,1.3 -6,0 -11.9,-1.3 -5.5,-1.3 -10.4,-4.3 -4.9,-3.2 -8.4,-7.8 -3.1,-4.6 -5.2,-9.8 -1.7,-5.2 -2.8,-10.4 -0.7,-5.6 -0.7,-11.1v-62.4q0,-5.5 0.7,-11.1 1.1,-5.5 3.2,-10.8 2.1,-5.2 5.5,-9.8 3.9,-4.5 8.7,-7.5 4.9,-2.9 10.8,-4.2 5.9,-1.3 11.9,-1.3h13.5v-0.7q0,-5.5 -1,-10.8 -0.7,-5.5 -3.1,-10.4 -2.1,-5.2 -6,-9.5 -3.4,-4.5 -8.3,-7.5 -4.9,-2.9 -10.8,-3.9 -5.6,-1.3 -11.5,-1.3 -5.9,0 -11.8,1.3 -5.6,1 -10.5,3.9 -4.8,3 -8.7,7.5 -3.4,4.3 -5.9,9.5 -2.1,4.9 -3.1,10.4 -0.7,5.3 -0.7,10.8v139.8q0,5.5 0.7,11.1 1,5.2 3.1,10.4 2.5,4.9 5.9,9.5 3.9,4.2 8.7,7.2 4.9,2.6 10.5,3.9 5.9,1.3 11.8,1.3zM201.8,335.4q4.2,0 7.3,-2.7 3.5,-2.9 4.9,-6.5 1.7,-3.6 2.1,-7.5 0.7,-3.9 0.7,-7.8v-86.9h-13.6q-4.2,0 -8,2.6 -3.5,2.3 -5.6,6.2 -1.7,3.6 -2.4,7.9 -0.4,3.9 -0.4,7.8v62.4q0,3.9 0.4,7.8 0.7,3.9 2.1,7.5 1.7,3.6 4.9,6.5 3.4,2.7 7.6,2.7z"/>
    <path fill-rule="evenodd" d="m284.4,386.3v22.8h52.6q9,0 18.1,-1.6 9,-2 17,-6.2 7.7,-4.2 13.6,-10.8 5.9,-6.5 9.8,-14.3 3.4,-7.9 4.8,-16.4 1.4,-8.4 1.4,-16.9v-139.8q0,-8.5 -1.4,-17 -1.4,-8.4 -4.8,-16.3 -3.9,-7.8 -9.8,-14.3 -5.9,-6.6 -13.6,-10.8 -8,-4.3 -17,-5.9 -9.1,-2 -18.1,-2 -9.1,0 -18.1,2 -9.1,1.6 -16.7,5.9 -8,4.2 -13.9,10.8 -5.9,6.5 -9.4,14.3 -3.9,7.9 -5.2,16.3 -1.4,8.5 -1.4,17v107.8q0,5.5 0.7,11.1 0.7,5.2 2.7,10.4 2.1,5.2 5.6,9.8 3.1,4.6 8,7.8 4.5,3 10.5,4.3 5.9,1.3 11.4,1.3 6,0 11.9,-1.3 5.5,-1.3 10.4,-4.3 4.9,-3.2 8.4,-7.8 3.1,-4.6 5.2,-9.8 1.7,-5.2 2.8,-10.4 0.7,-5.6 0.7,-11.1v-62.4q0,-5.5 -0.7,-11.1 -1.1,-5.5 -3.2,-10.8 -2.1,-5.2 -5.5,-9.8 -3.9,-4.5 -8.7,-7.5 -4.9,-2.9 -10.8,-4.2 -5.9,-1.3 -11.9,-1.3h-13.5v-0.7q0,-5.5 1,-10.8 0.7,-5.5 3.1,-10.4 2.1,-5.2 6,-9.5 3.4,-4.5 8.3,-7.5 4.9,-2.9 10.8,-3.9 5.6,-1.3 11.5,-1.3 5.9,0 11.8,1.3 5.6,1 10.5,3.9 4.8,3 8.7,7.5 3.4,4.3 5.9,9.5 2.1,4.9 3.1,10.4 0.7,5.3 0.7,10.8v139.8q0,5.5 -0.7,11.1 -1,5.2 -3.1,10.4 -2.5,4.9 -5.9,9.5 -3.9,4.2 -8.7,7.2 -4.9,2.6 -10.5,3.9 -5.9,1.3 -11.8,1.3zM311.2,335.4q-4.2,0 -7.3,-2.7 -3.5,-2.9 -4.9,-6.5 -1.7,-3.6 -2.1,-7.5 -0.7,-3.9 -0.7,-7.8v-86.9h13.6q4.2,0 8,2.6 3.5,2.3 5.6,6.2 1.7,3.6 2.4,7.9 0.4,3.9 0.4,7.8v62.4q0,3.9 -0.4,7.8 -0.7,3.9 -2.1,7.5 -1.7,3.6 -4.9,6.5 -3.4,2.7 -7.6,2.7z"/>
    <line x1="256.4" y1="159.1" x2="256.4" y2="340.5" stroke="#1a4d1a" stroke-width="13.6" stroke-linecap="round"/>
    <line x1="245.8" y1="150.3" x2="236.6" y2="110.3" stroke="#1a4d1a" stroke-width="7" stroke-linecap="round"/>
    <line x1="266.6" y1="150.3" x2="275.8" y2="110.3" stroke="#1a4d1a" stroke-width="7" stroke-linecap="round"/>
  </g>
</svg>
